PathFileType	4	(X/Y/Z)	/Users/visionmauri/1_7_1_f_Sports2D/1_7_1_f_Sports2D_px_person00.trc
DataRate	CameraRate	NumFrames	NumMarkers	Units	OrigDataRate	OrigDataStartFrame	OrigNumFrames
30.0	30.0	10	22	m	30.0	340	389
Frame#	Time	Hip			RHip			RKnee			RAnkle			RBigToe			RSmallToe			RHeel			LHip			LKnee			LAnkle			LBigToe			LSmallToe			LHeel			Neck			Head			Nose			RShoulder			RElbow			RWrist			LShoulder			LElbow			LWrist			
		X1	Y1	Z1	X2	Y2	Z2	X3	Y3	Z3	X4	Y4	Z4	X5	Y5	Z5	X6	Y6	Z6	X7	Y7	Z7	X8	Y8	Z8	X9	Y9	Z9	X10	Y10	Z10	X11	Y11	Z11	X12	Y12	Z12	X13	Y13	Z13	X14	Y14	Z14	X15	Y15	Z15	X16	Y16	Z16	X17	Y17	Z17	X18	Y18	Z18	X19	Y19	Z19	X20	Y20	Z20	X21	Y21	Z21	X22	Y22	Z22
340	11.362542955326461	558.4368323391237	844.3300849547358	0.0	474.8038500657458	875.9403879610642	0.0	498.67307771117214	1168.479024889587	0.0	545.8531475574356	1445.9578740198283	0.0	536.3454788630452	1572.4103252579885	0.0	488.7268152977851	1555.0686468202052	0.0	566.7325683038496	1483.8614808376726	0.0	639.1198303692148	865.9688231934911	0.0	648.2885343612307	1152.4120827356994	0.0	636.8471212376874	1484.2479148827133	0.0	621.3669786630728	1611.6421453742032	0.0	665.7668744245425	1602.60727954682	0.0	628.1677097254303	1525.7989205348533	0.0	541.8998647472248	406.3140914588293	0.0	528.3952769440143	234.49254900524653	0.0	535.476887034951	401.7945723336619	0.0	395.00757460524073	459.50905285746126	0.0	355.17732524703695	650.6439077169823	0.0	298.011463162176	832.6438263547522	0.0	691.7449182102038	426.71075482527607	0.0	756.4703515472521	650.3943719154297	0.0	753.063040974437	626.8699357822379	0.0
341	11.395962199312715	558.3946608531204	845.1867334298931	0.0	474.36703829858885	876.2497358431948	0.0	498.97508832724213	1171.150191944016	0.0	545.6062361899849	1447.37819659785	0.0	536.9411238315571	1572.9635279287606	0.0	490.0327563657525	1555.70814032316	0.0	566.5648098242774	1485.3773522665228	0.0	639.6799479072021	865.0121577760074	0.0	647.1699287127193	1147.2883867036317	0.0	633.4315829746915	1481.8389236888984	0.0	621.4986957405679	1610.0078856651382	0.0	664.2933690107922	1600.4661032461922	0.0	625.187603145499	1524.7005792510008	0.0	541.4158272666717	406.36884524926944	0.0	528.4896838172797	233.71977737317926	0.0	535.8310520229902	400.8589644360227	0.0	394.39298090357323	458.59136049624027	0.0	355.75704107511564	652.4746121999934	0.0	296.23758717974545	833.4392702408292	0.0	693.5723061052212	426.1348449766146	0.0	755.8543525101669	646.1497692904528	0.0	757.171107106321	631.0025038457804	0.0
342	11.429381443298968	558.0487961643823	845.4703909110958	0.0	474.05880921183024	875.1915753831436	0.0	500.0211244894424	1173.8650932004805	0.0	545.4974329545503	1448.9055763189328	0.0	537.2654372598998	1573.3225479079103	0.0	492.07863090653234	1556.4269557135538	0.0	566.2439627121602	1486.9564947321692	0.0	640.5853448060577	863.344920849812	0.0	648.7188382853069	1136.115357207348	0.0	631.6058228244289	1479.8417143123181	0.0	621.6245062798391	1609.7299565905657	0.0	662.0877253722416	1599.6736918761253	0.0	624.207774376421	1523.5467596612873	0.0	540.9891838392311	406.88496724286654	0.0	529.4734317979692	233.39916201298053	0.0	536.62084619921	398.7714388220315	0.0	394.07115444012794	458.4776226601031	0.0	356.151060666693	654.2674114662439	0.0	294.7391734507021	832.7612649966771	0.0	695.6104184759739	424.13599929116714	0.0	756.104601402583	639.2297354849696	0.0	761.6005445626056	632.6281003170218	0.0
343	11.462800687285224	557.0436193388981	845.6344359913347	0.0	473.9694315899107	874.6063899968641	0.0	500.8079121372162	1174.784029500323	0.0	545.3517248483254	1450.8089848512598	0.0	537.3401780884977	1573.547117559262	0.0	493.77172801056486	1556.8632636623279	0.0	565.9182606721306	1488.5287383482446	0.0	641.0057901001677	862.2541733480502	0.0	650.7213271671664	1127.8477806474875	0.0	630.0838021436891	1478.5589946771117	0.0	621.7071695978898	1610.4307947491181	0.0	659.0190711304754	1600.3956593556932	0.0	623.1484772092538	1523.6643836536564	0.0	541.5740961867976	407.0770896746646	0.0	531.6570827261951	233.31605803463856	0.0	539.0839466408582	397.1231818992937	0.0	394.8794152577327	458.1366458254519	0.0	356.35155208188434	654.675601754426	0.0	293.99166681469745	829.5914055829187	0.0	697.7492538144753	422.29925762469276	0.0	758.0403913504342	635.8260355125752	0.0	763.8223221631267	634.4207220547556	0.0
344	11.496219931271478	555.6484718957704	846.8761434352259	0.0	474.22701527612423	876.431158719857	0.0	501.1860607179914	1174.3827717766455	0.0	545.0108632855868	1451.8429010011166	0.0	537.1683287592032	1573.6031988386562	0.0	494.21119554654314	1556.6330910203449	0.0	566.6267107090948	1490.0182666528046	0.0	641.2512785843235	864.0834367984284	0.0	651.5890523399039	1128.6344509670168	0.0	628.2838721008245	1479.01580674414	0.0	620.092052468035	1613.2869011492044	0.0	656.3494746944082	1602.9130797586556	0.0	621.2773055683181	1524.2282261187695	0.0	543.668525789547	406.8799713828902	0.0	535.1216571122314	234.19727248216432	0.0	542.4930641833176	397.0936944311902	0.0	397.17209451319115	457.64985078468993	0.0	356.23921510330723	654.4445543589565	0.0	293.7759293076059	825.7969328328826	0.0	699.7748038015485	422.36024014779184	0.0	761.5015333749249	640.0608284782771	0.0	765.2069970068976	639.2076820574848	0.0
345	11.529639175257731	554.963346168341	849.6146024717705	0.0	474.8509778699358	879.7689871983246	0.0	501.48336791989726	1174.1840356655741	0.0	545.0810786411371	1451.3577932342096	0.0	536.6569718398412	1574.2033261507984	0.0	493.172462084301	1556.155916952053	0.0	569.6477343809603	1490.6948237834497	0.0	642.1265792191864	869.0543024307117	0.0	651.4406315952994	1135.9894763931204	0.0	625.5296527472556	1483.4370934068886	0.0	615.2469338759811	1619.651206644045	0.0	654.0620514109311	1608.1528589743798	0.0	618.7096521530234	1526.086791437072	0.0	546.5017699619572	406.7968272859283	0.0	539.4254149657098	234.97476313405394	0.0	545.3874064576813	397.7856264159247	0.0	400.1647884588767	457.0689285527326	0.0	355.6605602982685	654.5291050713884	0.0	293.1471325396348	824.7757945267216	0.0	701.5767408971684	424.13740755219726	0.0	765.5628505271533	649.3649553727536	0.0	767.7072336738817	644.6576620455625	0.0
346	11.563058419243985	555.4591553959957	852.7555081519334	0.0	475.1748065369363	883.5165680866586	0.0	501.23930984050065	1175.3828788757655	0.0	546.6307305297884	1450.6113815843344	0.0	536.1124798735399	1576.7902456312336	0.0	491.3897002778397	1556.9791766206242	0.0	574.2752553505438	1489.9990243971286	0.0	643.0815522434115	875.3340516834797	0.0	650.1827590975123	1145.8259640188862	0.0	621.3298915120056	1493.6681288058983	0.0	608.4818631842327	1630.3051441230218	0.0	650.913047903624	1618.0321644378164	0.0	614.4334900672922	1533.6801002394197	0.0	549.2476868121518	405.7718318221024	0.0	543.82945868358	235.5564182924403	0.0	547.0510127266324	398.2175245629223	0.0	402.6504404103641	455.695373603891	0.0	354.9325895442429	654.6000845276595	0.0	291.3306921543051	826.7490338116849	0.0	703.5935607451456	425.83334861724546	0.0	768.715251397896	655.2236198561443	0.0	770.7698160732845	645.9115742429958	0.0
347	11.59647766323024	556.3068401331442	855.8990682728783	0.0	474.25469399883576	888.220670075747	0.0	500.3489404198403	1178.1618187032093	0.0	549.1994780688667	1450.6058359621054	0.0	536.0213358069785	1581.7078705050467	0.0	489.7258567367464	1559.930747942452	0.0	578.0384328304197	1488.4823247078689	0.0	643.0844221237146	882.2052326959999	0.0	646.1272956702245	1158.10626114838	0.0	616.8883140488405	1509.866197915744	0.0	602.3752161390516	1645.9349017013074	0.0	647.0831291610028	1633.8633912970386	0.0	608.2203799127591	1550.5802365750485	0.0	552.4909145529934	402.6061633591383	0.0	548.2205775509949	237.33721674449635	0.0	547.6341758104696	399.0609010212005	0.0	404.00575224414035	453.8549681492973	0.0	354.54904422709757	654.4501543980103	0.0	288.31590260035495	829.0397718854801	0.0	706.3453229030906	426.52524444876457	0.0	770.3376316309912	653.5296589871957	0.0	772.9422590009851	642.2070111640124	0.0
348	11.629896907216494	556.6133083614261	859.849715997859	0.0	472.264671029817	893.5335173075747	0.0	500.0309976174103	1180.8715961684857	0.0	551.191098821528	1450.7322692484988	0.0	537.5838265396891	1588.2645137264544	0.0	489.12663473693266	1564.6866810389674	0.0	579.7736681816807	1487.6826245076095	0.0	642.1158295388659	889.3894691910352	0.0	638.8462801045924	1171.6382870334367	0.0	612.7999998495297	1527.001039257594	0.0	596.6840389239701	1662.9676835765185	0.0	642.7539332059531	1651.1828276423971	0.0	601.0635872742389	1570.6820247865787	0.0	556.8460558590435	398.777729741691	0.0	552.8220763552266	239.5504504530977	0.0	548.3711874327812	400.54509827168266	0.0	404.47998821254635	452.9575149513011	0.0	354.5178201419585	654.666462466366	0.0	285.27748809278023	830.0121728635246	0.0	709.9898430188409	427.5661601369874	0.0	771.6840414871765	649.8862815673974	0.0	774.7429400391904	639.3305787208012	0.0
349	11.663316151202748	556.3702674207155	864.0171999082045	0.0	470.5249194477256	897.5891252058126	0.0	501.0667455318351	1182.0282965792408	0.0	552.9090226299359	1451.4417318959372	0.0	542.9716674732274	1596.6074080062644	0.0	491.52343394199823	1572.0374857473744	0.0	580.1422231335529	1489.413561280337	0.0	640.7281439843624	895.0342815740754	0.0	631.6269045577046	1180.4748972734394	0.0	607.7977941522803	1536.594300029031	0.0	589.9364577125168	1673.5196201356657	0.0	636.9605625018347	1661.882306317695	0.0	593.2454017169266	1581.0153054594982	0.0	561.7747102150228	396.8592168661836	0.0	557.1844391640199	240.33719084149732	0.0	550.7294208932292	401.4177672424433	0.0	405.63232905614785	453.002390278983	0.0	354.57262135964453	655.466774941117	0.0	283.43870162555504	830.101283964841	0.0	714.7196987113797	430.2764461135852	0.0	773.8241673246237	650.0523193399966	0.0	778.0308362261219	644.4205978961327	0.0
